<?xml version="1.0" standalone="no"?>
<!DOCTYPE svg PUBLIC "-//W3C//DTD SVG 20010904//EN"
 "http://www.w3.org/TR/2001/REC-SVG-20010904/DTD/svg10.dtd">
<svg version="1.0" xmlns="http://www.w3.org/2000/svg"
 width="2671.000000pt" height="2671.000000pt" viewBox="0 0 2671.000000 2671.000000"
 preserveAspectRatio="xMidYMid meet">
<metadata>
Created by potrace 1.14, written by Peter Selinger 2001-2017
</metadata>
<g transform="translate(0.000000,2671.000000) scale(0.100000,-0.100000)"
fill="#000000" stroke="none">
<path d="M13178 20175 c-2 -3 -33 -7 -69 -10 -35 -3 -77 -7 -94 -9 -16 -2 -52
-7 -80 -11 -27 -4 -63 -9 -80 -12 -16 -3 -42 -6 -57 -7 -16 0 -28 -5 -28 -10
0 -5 -2 -7 -5 -4 -4 3 -25 1 -48 -4 -23 -5 -50 -11 -60 -13 -83 -17 -263 -71
-517 -155 -174 -57 -505 -163 -507 -162 -2 1 -18 -5 -37 -13 -18 -8 -36 -11
-40 -8 -3 4 -6 2 -6 -4 0 -5 -6 -10 -12 -11 -15 -1 -37 -7 -58 -15 -8 -3 -60
-20 -115 -37 -55 -17 -107 -34 -115 -37 -8 -3 -19 -7 -25 -8 -13 -3 -311 -100
-385 -125 -117 -40 -566 -184 -575 -185 -5 -1 -17 -4 -25 -7 -29 -12 -107 -38
-405 -133 -360 -116 -415 -134 -435 -142 -8 -3 -21 -7 -28 -9 -10 -2 -272 -86
-552 -177 -19 -6 -37 -12 -40 -12 -3 -1 -99 -32 -215 -70 -115 -38 -212 -70
-215 -70 -20 -5 -157 -49 -165 -54 -5 -3 -14 -6 -20 -6 -5 -1 -17 -4 -25 -7
-15 -6 -150 -51 -160 -53 -9 -2 -100 -31 -310 -100 -113 -37 -209 -68 -215
-69 -5 -1 -35 -11 -65 -21 -30 -11 -57 -20 -60 -20 -11 -2 -306 -97 -320 -103
-8 -3 -19 -6 -25 -7 -5 0 -14 -3 -20 -6 -5 -4 -48 -19 -95 -34 -75 -24 -96
-30 -135 -38 -5 -2 -14 -5 -20 -8 -10 -7 -107 -39 -128 -43 -7 -2 -19 -6 -27
-9 -22 -9 -269 -88 -283 -91 -7 -2 -25 -9 -42 -15 -16 -7 -41 -15 -54 -17 -14
-3 -28 -7 -33 -10 -4 -3 -16 -7 -25 -9 -19 -5 -107 -33 -133 -43 -8 -3 -17 -6
-20 -7 -3 0 -21 -6 -41 -13 -20 -7 -45 -15 -55 -17 -16 -3 -101 -31 -164 -53
-8 -3 -21 -4 -27 -3 -7 1 -13 -3 -13 -9 0 -5 -6 -10 -13 -10 -7 0 -69 -18
-137 -41 -69 -22 -132 -42 -140 -44 -8 -2 -98 -31 -200 -65 -102 -34 -192 -63
-200 -65 -8 -2 -34 -10 -57 -19 -24 -8 -43 -13 -43 -9 0 3 -7 0 -15 -7 -8 -7
-15 -9 -15 -5 0 4 -6 3 -12 -2 -11 -9 -30 -15 -78 -28 -3 0 -57 -18 -120 -39
-63 -21 -119 -39 -125 -40 -5 -2 -17 -6 -25 -9 -30 -11 -205 -68 -223 -72 -16
-4 -88 -27 -342 -111 -60 -20 -114 -37 -120 -38 -5 -2 -21 -8 -35 -13 -14 -6
-41 -14 -60 -18 -19 -4 -40 -11 -45 -16 -6 -4 -22 -10 -35 -12 -14 -2 -32 -7
-40 -10 -26 -11 -144 -49 -162 -52 -9 -2 -27 -9 -40 -16 -13 -7 -24 -12 -25
-11 -2 1 -4 2 -5 1 -2 0 -10 -2 -18 -4 -8 -2 -84 -26 -169 -54 -84 -28 -157
-51 -161 -51 -5 0 -21 -5 -37 -12 -15 -6 -30 -12 -33 -13 -3 -1 -18 -7 -33
-13 -16 -7 -35 -12 -43 -12 -8 0 -14 -4 -14 -10 0 -5 -7 -10 -15 -10 -18 0
-139 -64 -220 -115 -68 -44 -169 -128 -237 -199 -67 -69 -169 -202 -161 -210
3 -3 1 -6 -5 -6 -6 0 -17 -12 -25 -27 -76 -149 -100 -202 -127 -287 -18 -54
-34 -112 -37 -130 -3 -17 -9 -51 -15 -76 -12 -55 -16 -411 -4 -460 4 -19 9
-44 11 -55 13 -70 20 -98 45 -176 29 -89 78 -197 126 -279 114 -195 330 -404
525 -507 30 -16 62 -34 70 -38 8 -5 19 -10 24 -11 6 -1 35 -14 66 -27 31 -14
60 -23 63 -20 3 4 6 1 6 -5 0 -7 7 -12 15 -12 9 0 40 -9 70 -19 30 -11 55 -17
55 -14 0 3 7 0 15 -7 8 -7 15 -9 15 -5 0 4 6 2 13 -4 8 -6 22 -12 33 -14 10
-2 26 -6 34 -10 20 -7 463 -151 473 -153 4 -1 8 -2 10 -4 1 -1 9 -3 17 -5 8
-1 47 -13 85 -26 39 -13 73 -22 78 -21 4 1 7 -2 7 -6 0 -4 8 -9 18 -10 31 -3
47 -8 67 -19 11 -6 23 -11 28 -12 17 -2 57 -13 57 -17 0 -1 -15 -34 -34 -71
-83 -166 -139 -313 -196 -518 -26 -95 -50 -151 -50 -119 0 5 -3 5 -8 -1 -9
-12 -61 -44 -85 -52 -9 -3 -17 -9 -17 -14 0 -5 -7 -9 -15 -9 -8 0 -15 -4 -15
-10 0 -5 -4 -10 -9 -10 -27 0 -212 -184 -274 -273 -26 -37 -47 -70 -47 -72 0
-2 -14 -28 -31 -57 -17 -29 -32 -59 -34 -68 -2 -8 -12 -39 -24 -67 -11 -29
-18 -53 -15 -53 4 0 2 -6 -4 -12 -10 -13 -17 -43 -27 -108 -3 -19 -9 -57 -13
-85 -13 -85 -4 -253 19 -355 6 -25 12 -52 14 -60 15 -70 104 -266 127 -281 6
-3 10 -10 9 -15 0 -11 85 -125 126 -169 27 -28 87 -83 146 -132 14 -12 67 -47
117 -76 49 -30 88 -56 86 -58 -3 -2 -7 -22 -10 -44 -11 -87 -23 -160 -26 -160
-1 0 -3 -22 -6 -49 -3 -27 -9 -57 -14 -66 -5 -10 -7 -19 -5 -22 3 -3 1 -29 -5
-59 -5 -30 -12 -74 -16 -99 -7 -50 -12 -75 -14 -75 -1 0 -3 -13 -4 -30 -5 -44
-16 -117 -22 -138 -3 -10 -7 -35 -9 -55 -2 -20 -7 -50 -10 -67 -4 -16 -8 -43
-10 -60 -9 -69 -17 -112 -25 -138 -6 -19 -6 -26 1 -21 8 4 8 1 1 -12 -5 -11
-13 -41 -17 -69 -15 -106 -22 -152 -30 -195 -15 -91 -35 -213 -40 -245 -6 -44
-16 -103 -25 -155 -5 -30 -12 -73 -15 -95 -4 -22 -8 -51 -11 -65 -2 -14 -7
-45 -10 -70 -3 -25 -8 -54 -10 -65 -2 -11 -6 -33 -9 -50 -3 -16 -7 -43 -10
-60 -3 -16 -8 -50 -11 -75 -3 -25 -8 -52 -10 -60 -3 -8 -8 -35 -10 -60 -3 -25
-8 -52 -11 -60 -3 -8 -7 -30 -8 -48 -2 -19 -6 -48 -9 -65 -14 -76 -19 -113
-18 -129 0 -10 -2 -18 -6 -18 -4 0 -7 -12 -7 -27 -1 -16 -6 -59 -13 -98 -7
-38 -14 -83 -17 -100 -4 -28 -7 -48 -21 -127 -3 -18 -7 -46 -9 -63 -2 -16 -6
-43 -9 -60 -10 -46 -17 -86 -21 -130 -3 -22 -11 -76 -19 -120 -8 -44 -17 -98
-20 -120 -2 -22 -12 -80 -21 -130 -9 -49 -18 -106 -21 -125 -9 -72 -16 -115
-19 -120 -6 -10 -18 -123 -19 -188 -4 -153 68 -350 163 -449 45 -47 118 -93
175 -111 11 -4 374 -7 806 -7 l785 0 55 26 c135 65 227 194 272 379 25 107 25
201 0 345 -6 33 -13 76 -16 95 -3 19 -8 46 -10 60 -2 14 -7 47 -11 73 -4 27
-8 57 -10 66 -3 19 -40 243 -49 301 -3 19 -8 46 -11 60 -3 14 -8 45 -11 70 -3
25 -10 68 -15 95 -5 28 -11 68 -14 90 -3 22 -7 50 -9 62 -5 24 -18 107 -22
138 -1 11 -3 20 -4 20 -2 0 -8 33 -15 85 -8 57 -15 106 -21 134 -10 48 -16 83
-19 111 -4 33 -14 96 -21 135 -4 23 -11 66 -18 115 -2 11 -6 40 -10 65 -4 25
-8 56 -10 70 -1 14 -5 30 -9 36 -3 6 -7 31 -9 57 -2 26 -5 47 -8 47 -3 0 -5
15 -6 33 0 17 -4 48 -7 67 -4 19 -10 53 -13 75 -3 22 -7 47 -10 54 -3 8 -7 35
-10 60 -5 45 -8 64 -17 106 -3 12 -9 48 -13 80 -8 62 -10 73 -13 78 -1 1 -4
20 -6 42 -2 22 -6 51 -9 65 -4 14 -8 39 -11 55 -13 96 -16 111 -30 185 -3 14
-7 43 -10 65 -2 22 -11 77 -19 122 -8 45 -18 101 -21 125 -3 24 -11 72 -17
108 -5 36 -12 79 -14 95 -2 17 -6 41 -10 55 -3 14 -8 43 -10 65 -5 38 -8 54
-19 108 -2 13 -6 41 -9 62 -2 22 -7 51 -10 65 -3 14 -8 41 -11 60 -2 19 -7 49
-10 65 -5 27 -1 33 40 57 25 16 50 28 55 28 6 0 10 5 10 10 0 6 7 10 15 10 7
0 19 8 24 18 6 9 11 13 11 9 0 -11 134 100 181 150 49 52 141 173 132 173 -5
0 -3 4 3 8 21 13 73 118 109 217 19 52 35 97 35 100 0 3 0 6 1 8 0 1 2 11 4
22 1 11 5 34 8 50 18 91 23 199 12 300 -6 62 -39 214 -53 250 -36 89 -114 229
-164 295 -56 75 -177 197 -229 231 l-24 17 18 48 c10 27 20 57 22 67 6 27 101
203 148 274 39 60 43 63 72 57 16 -4 33 -12 37 -18 4 -6 8 -8 8 -4 0 9 101
-21 118 -34 7 -6 15 -8 19 -5 3 4 12 2 20 -4 7 -6 13 -8 13 -4 0 4 6 3 13 -2
6 -6 26 -14 42 -18 44 -12 45 -12 50 -15 3 -1 8 -3 13 -4 10 -2 113 -36 132
-43 8 -3 20 -7 25 -8 6 -2 89 -28 185 -60 96 -31 211 -68 255 -82 44 -14 98
-32 120 -40 22 -8 47 -16 56 -18 9 -2 39 -11 65 -20 27 -9 58 -19 69 -21 11
-2 29 -8 40 -13 20 -10 284 -95 297 -96 3 0 10 -3 14 -8 4 -4 17 -7 29 -7 11
0 25 -4 30 -8 6 -5 30 -14 55 -21 25 -6 71 -21 103 -33 l58 -21 -5 -51 c-4
-28 -8 -71 -11 -96 -3 -25 -7 -61 -11 -80 -3 -19 -7 -55 -10 -80 -3 -40 -6
-61 -18 -150 -5 -37 -18 -141 -21 -175 -2 -16 -6 -44 -9 -60 -3 -17 -8 -58
-11 -90 -3 -33 -7 -69 -9 -80 -2 -11 -7 -49 -11 -85 -4 -36 -9 -74 -11 -85 -3
-11 -7 -42 -9 -70 -6 -60 -10 -92 -20 -165 -4 -30 -9 -73 -11 -95 -2 -22 -5
-49 -8 -61 -2 -12 -7 -45 -10 -75 -4 -30 -9 -70 -12 -89 -2 -19 -7 -55 -9 -80
-2 -25 -7 -58 -9 -75 -6 -34 -11 -81 -22 -175 -7 -65 -11 -95 -14 -95 -1 0 -3
-20 -5 -45 -2 -25 -6 -64 -9 -87 -3 -24 -8 -62 -11 -85 -7 -55 -14 -108 -21
-159 -3 -22 -7 -55 -9 -72 -2 -18 -6 -61 -10 -97 -4 -36 -9 -68 -12 -72 -2 -5
-6 -36 -9 -70 -2 -35 -6 -73 -8 -85 -3 -12 -8 -53 -11 -90 -4 -37 -9 -76 -11
-87 -2 -10 -6 -44 -9 -75 -4 -31 -8 -63 -10 -71 -2 -8 -7 -44 -11 -80 -3 -36
-8 -76 -10 -90 -1 -14 -5 -45 -8 -70 -3 -25 -8 -54 -10 -65 -6 -32 -18 -165
-15 -167 1 -2 -3 -13 -9 -25 -8 -14 -9 -24 -2 -28 6 -4 7 -12 3 -18 -4 -7 -9
-23 -9 -37 -1 -14 -3 -25 -4 -25 -1 0 -3 -11 -5 -25 -1 -14 -6 -52 -10 -85 -4
-33 -9 -71 -10 -85 -2 -14 -4 -25 -5 -25 -1 0 -3 -18 -4 -40 -2 -22 -7 -65
-11 -95 -13 -88 -7 -220 12 -270 3 -8 7 -20 9 -27 7 -34 30 -91 64 -161 72
-145 195 -298 345 -427 39 -33 72 -62 75 -65 35 -37 307 -218 439 -293 101
-56 384 -192 516 -247 182 -75 176 -73 250 -100 33 -12 74 -29 92 -36 17 -8
43 -15 57 -16 14 -1 26 -6 26 -11 0 -4 4 -6 9 -3 5 4 11 2 13 -3 1 -6 14 -12
28 -15 14 -3 75 -21 135 -41 103 -33 331 -102 365 -110 8 -2 49 -13 90 -25 41
-12 84 -23 95 -25 11 -1 20 -3 20 -4 0 -2 9 -4 19 -6 11 -2 31 -7 45 -11 14
-4 29 -8 34 -9 4 -2 8 -3 10 -5 1 -1 16 -3 34 -5 17 -2 40 -8 51 -14 11 -6 22
-8 24 -5 3 2 17 0 32 -6 15 -5 37 -12 49 -14 25 -5 110 -23 145 -30 13 -3 31
-7 40 -10 9 -3 33 -8 52 -11 19 -3 76 -15 125 -25 50 -11 106 -22 125 -25 19
-3 42 -8 50 -10 8 -2 35 -7 59 -10 23 -3 46 -7 50 -9 3 -2 31 -7 61 -11 30 -4
57 -8 60 -10 6 -4 82 -16 125 -21 17 -1 55 -7 85 -13 30 -5 73 -13 95 -16 22
-3 51 -7 65 -10 14 -2 48 -6 75 -10 104 -13 119 -15 148 -20 16 -3 52 -8 81
-11 28 -3 60 -7 71 -8 49 -6 134 -16 175 -21 25 -3 72 -8 105 -11 33 -4 74 -8
90 -9 17 -2 30 -4 30 -5 0 -1 18 -3 40 -5 79 -5 201 -15 245 -20 43 -5 144
-13 260 -20 30 -2 96 -6 145 -9 204 -13 295 -17 393 -20 56 -2 106 -6 109 -10
3 -3 12 -1 20 5 7 6 13 8 13 3 0 -12 77 -14 670 -19 318 -2 509 0 516 6 7 6
15 6 18 1 2 -4 29 -6 58 -3 29 3 95 6 145 6 51 0 93 2 93 5 0 3 46 6 103 7
104 1 241 8 402 18 50 4 119 8 155 10 68 4 170 12 255 21 51 5 131 12 220 19
68 5 162 15 205 21 56 7 111 14 165 19 117 13 229 27 235 30 3 2 39 6 80 10
41 4 78 9 81 11 4 2 31 6 60 9 30 3 65 8 79 10 14 2 40 7 58 10 17 3 47 8 65
11 17 3 43 7 57 9 14 2 41 6 60 9 87 16 198 36 235 41 45 7 70 13 70 15 0 1
14 3 30 5 17 2 64 11 105 20 80 18 123 26 155 30 11 1 20 3 20 4 0 2 7 4 15 6
8 1 40 8 71 14 30 6 68 14 84 17 15 3 36 9 45 14 10 5 20 7 22 4 3 -2 16 0 30
5 14 5 38 12 54 14 16 3 54 13 86 21 31 8 69 18 85 21 46 10 47 10 61 18 6 5
12 6 12 4 0 -3 28 3 62 13 34 11 65 17 70 14 4 -3 8 0 8 5 0 6 8 11 17 11 24
0 229 62 463 142 113 38 210 70 215 72 13 4 65 24 90 35 57 25 129 51 141 51
8 0 14 4 14 9 0 5 12 12 28 16 15 3 55 20 90 36 35 16 66 29 69 29 10 0 299
144 328 165 17 11 33 20 36 20 6 0 162 91 213 125 44 29 168 115 180 125 6 6
33 28 61 50 184 147 356 349 420 495 11 25 23 48 28 51 5 3 8 8 7 10 -1 2 7
36 18 74 24 82 35 143 35 205 0 41 -3 72 -17 185 -3 22 -7 60 -10 85 -3 25 -7
61 -11 80 -3 19 -7 55 -10 80 -3 25 -8 61 -10 80 -3 19 -7 55 -10 80 -2 25 -7
65 -11 90 -3 25 -7 61 -9 80 -2 19 -4 35 -5 35 -1 0 -3 11 -5 25 -3 31 -14
124 -19 165 -2 17 -7 57 -11 90 -4 33 -9 69 -10 80 -2 11 -6 43 -9 70 -4 28
-8 66 -11 85 -3 19 -7 55 -9 80 -3 25 -9 77 -15 115 -6 39 -13 97 -17 129 -3
33 -7 67 -9 77 -2 10 -7 49 -10 86 -4 37 -8 75 -10 83 -3 8 -7 42 -10 75 -4
33 -8 71 -10 85 -10 64 -17 121 -30 235 -4 33 -8 71 -10 85 -8 53 -15 107 -20
150 -15 120 -20 160 -29 230 -2 14 -6 52 -10 85 -4 33 -9 71 -11 85 -2 14 -7
50 -10 80 -3 30 -7 66 -9 80 -2 14 -7 50 -11 80 -3 30 -9 69 -12 85 -2 17 -6
50 -8 75 -1 25 -5 59 -8 75 -4 17 -9 50 -11 75 -6 50 -15 129 -21 175 -3 17
-7 50 -9 75 -3 25 -8 63 -11 85 -3 21 -8 60 -11 85 -3 25 -7 61 -10 80 -12 88
-16 128 -18 173 l-1 48 70 23 c39 13 178 58 310 100 132 43 249 81 260 85 28
11 90 31 112 36 10 2 34 10 53 18 19 8 38 15 43 15 4 1 80 25 170 54 89 29
164 53 167 53 6 1 170 54 190 62 8 3 20 7 25 8 18 4 180 55 195 62 8 3 18 7
23 8 4 2 9 4 12 5 3 1 8 3 13 4 4 1 13 5 20 9 6 5 12 6 12 3 0 -3 16 2 35 10
19 8 35 12 35 9 0 -3 10 0 23 7 22 12 38 17 70 20 9 1 17 5 17 8 0 5 83 31 93
29 1 0 20 7 42 17 22 9 40 16 40 14 0 -1 13 3 28 9 16 6 31 11 34 11 4 0 126
39 272 87 146 48 269 88 274 89 4 1 8 2 10 4 1 1 9 3 17 5 8 1 80 24 160 51
79 26 150 47 157 47 7 0 13 5 13 10 0 6 3 8 6 4 4 -3 22 0 41 8 19 8 39 12 44
9 5 -3 9 -1 9 3 0 6 115 46 140 48 3 0 10 3 15 6 6 3 78 28 160 54 83 26 240
77 350 112 206 67 215 69 227 72 4 1 27 9 50 17 24 9 48 17 53 18 6 2 19 7 30
11 184 74 282 128 415 233 53 42 224 212 213 212 -5 0 -1 6 8 13 18 14 121
167 123 183 1 7 7 18 12 25 6 8 20 34 31 59 11 25 28 62 37 83 10 21 19 45 21
55 2 9 15 58 29 107 14 50 29 120 33 155 14 116 7 448 -10 477 -3 4 -8 26 -11
48 -4 22 -18 76 -32 120 -80 252 -226 470 -429 642 -65 54 -208 153 -223 153
-5 0 -15 7 -22 15 -7 9 -15 13 -17 11 -3 -3 -30 8 -62 24 -31 15 -94 41 -141
58 -80 28 -463 153 -485 158 -5 1 -29 9 -52 18 -24 8 -43 13 -43 9 0 -3 -6 -1
-12 4 -7 6 -26 14 -43 18 -34 9 -35 10 -55 18 -22 8 -153 51 -165 53 -9 2
-199 63 -505 163 -47 16 -152 50 -235 76 -82 27 -152 51 -155 54 -3 3 -14 7
-25 8 -26 3 -46 8 -65 16 -19 8 -200 67 -220 72 -8 2 -85 27 -170 55 -85 29
-159 53 -165 54 -12 2 -113 35 -135 43 -8 3 -19 7 -25 8 -23 6 -212 67 -230
75 -11 5 -38 14 -60 20 -22 6 -47 14 -55 17 -8 3 -21 8 -27 10 -7 1 -19 5 -25
6 -7 2 -20 7 -28 10 -8 3 -123 40 -255 82 -132 42 -247 79 -255 82 -8 4 -17 7
-20 8 -3 0 -38 11 -77 24 -40 12 -76 23 -80 23 -5 0 -17 5 -28 11 -11 6 -25
12 -32 13 -7 1 -79 24 -160 50 -81 26 -151 47 -155 46 -5 -1 -8 2 -8 8 0 6 -3
9 -7 8 -14 -3 -78 14 -90 24 -7 6 -13 7 -13 4 0 -4 -9 -2 -21 4 -11 6 -28 13
-37 15 -9 2 -60 17 -112 35 -52 17 -102 33 -110 35 -8 2 -121 38 -250 80 -129
42 -251 81 -270 86 -19 6 -44 14 -55 19 -11 5 -38 14 -60 20 -22 6 -49 15 -60
20 -27 11 -139 44 -143 42 -1 -2 -15 4 -32 13 -16 8 -39 17 -52 19 -13 3 -24
5 -25 7 -2 1 -6 2 -10 3 -5 1 -89 29 -188 61 -99 32 -184 60 -190 61 -17 3
-329 105 -350 114 -22 9 -125 41 -140 44 -5 1 -14 4 -20 7 -8 5 -41 15 -75 24
-3 0 -30 9 -60 19 -80 26 -80 26 -84 23 -1 -1 -10 4 -19 12 -10 7 -17 11 -17
7 0 -3 -24 3 -52 13 -50 18 -552 182 -573 187 -5 1 -46 14 -90 29 -44 15 -84
28 -90 29 -5 1 -14 4 -20 7 -5 3 -48 17 -95 30 -47 13 -86 27 -88 31 -2 5 -12
8 -22 8 -9 0 -33 6 -51 14 -19 8 -38 15 -44 15 -15 2 -48 11 -70 21 -11 4
-114 38 -230 75 -296 94 -428 137 -445 143 -8 3 -20 6 -25 7 -12 3 -192 63
-215 72 -8 3 -20 7 -27 9 -14 2 -140 43 -163 51 -8 3 -19 7 -25 8 -5 2 -89 29
-185 60 -96 31 -218 70 -270 87 -52 16 -120 38 -150 48 -61 22 -201 60 -240
65 -30 5 -65 13 -65 15 0 1 -11 3 -25 5 -14 2 -36 6 -50 9 -14 3 -43 8 -65 11
-22 3 -56 8 -75 10 -153 22 -215 27 -399 32 -143 4 -172 3 -165 -9 6 -10 5
-11 -8 -1 -8 7 -17 11 -20 8z m55 -1148 c18 11 219 11 241 0 14 -7 16 -6 11 4
-5 8 -4 10 4 5 7 -4 30 -9 51 -11 113 -9 271 -40 380 -73 36 -12 74 -22 85
-24 11 -2 22 -6 25 -10 3 -4 15 -9 25 -11 23 -3 340 -104 370 -117 11 -5 35
-12 53 -15 17 -4 32 -10 32 -14 0 -4 6 -8 13 -8 16 0 93 -22 126 -35 14 -6 31
-12 38 -14 15 -3 112 -33 133 -41 8 -4 17 -7 20 -7 19 -5 309 -99 325 -106 24
-11 140 -43 140 -39 0 1 11 -4 25 -11 14 -8 32 -15 40 -17 8 -1 56 -16 105
-33 50 -17 99 -33 109 -35 10 -2 35 -10 55 -17 20 -7 38 -13 41 -13 3 -1 93
-30 200 -65 107 -36 200 -65 205 -65 6 0 15 -3 20 -6 9 -6 135 -48 160 -54 6
-1 17 -5 25 -8 8 -3 74 -24 145 -47 72 -23 137 -44 145 -47 8 -3 20 -7 27 -9
18 -3 145 -44 168 -54 11 -4 67 -23 125 -40 58 -18 110 -35 115 -39 6 -3 15
-6 22 -7 16 -3 83 -23 108 -34 25 -10 108 -35 117 -35 3 0 10 -3 14 -7 4 -5
16 -8 26 -8 10 0 26 -4 36 -10 9 -5 132 -46 272 -90 262 -83 291 -93 325 -106
11 -4 31 -9 45 -11 14 -2 29 -8 35 -14 5 -5 15 -9 21 -9 7 0 25 -5 41 -11 15
-7 35 -13 43 -14 8 -1 78 -24 155 -49 77 -26 148 -48 158 -49 9 -1 17 -5 17
-10 0 -4 4 -6 8 -3 4 2 21 -1 37 -8 17 -7 75 -27 130 -44 55 -18 177 -57 270
-88 94 -30 177 -57 185 -59 8 -2 51 -16 95 -30 44 -15 85 -28 90 -29 6 -1 15
-4 20 -7 6 -4 24 -10 40 -14 44 -12 45 -12 50 -15 3 -1 10 -4 15 -5 6 -1 12
-4 15 -5 5 -3 6 -3 50 -15 17 -4 35 -10 40 -14 6 -3 15 -6 20 -7 14 -2 234
-73 270 -87 17 -6 35 -12 40 -13 6 -1 42 -13 80 -26 69 -25 81 -28 100 -33 6
-1 33 -10 60 -19 28 -10 57 -19 65 -21 8 -2 71 -22 140 -45 69 -23 136 -44
150 -46 13 -3 30 -10 37 -16 7 -6 13 -7 13 -4 0 4 6 4 13 -1 6 -4 17 -8 22 -9
13 -2 203 -63 237 -76 15 -5 29 -10 32 -10 3 0 29 -8 58 -19 29 -11 62 -22 73
-24 12 -3 48 -14 80 -26 33 -11 67 -22 75 -24 17 -4 136 -43 165 -54 11 -5 61
-20 110 -35 50 -15 97 -30 105 -33 8 -3 20 -7 25 -9 6 -1 73 -23 150 -49 77
-25 147 -48 155 -50 8 -2 44 -13 80 -25 36 -12 70 -23 75 -24 6 -2 17 -6 25
-9 20 -8 332 -108 345 -111 6 -1 48 -15 95 -30 105 -34 104 -34 111 -32 3 0
13 -5 22 -13 10 -7 17 -11 17 -7 0 3 17 -1 38 -8 20 -8 125 -42 232 -76 107
-34 202 -65 210 -68 8 -3 18 -6 23 -7 4 -2 8 -3 10 -5 1 -1 9 -3 17 -5 64 -14
362 -121 390 -140 73 -51 121 -141 122 -227 0 -49 -29 -148 -44 -148 -4 0 -8
-5 -8 -12 0 -28 -127 -111 -185 -121 -11 -2 -33 -9 -48 -15 -16 -7 -34 -12
-42 -12 -7 0 -34 -9 -59 -20 -26 -11 -47 -19 -49 -18 -2 1 -72 -20 -97 -29 -8
-3 -20 -7 -27 -9 -13 -2 -228 -72 -253 -81 -8 -3 -19 -7 -25 -8 -5 -2 -53 -17
-105 -35 -52 -17 -99 -33 -105 -34 -12 -2 -113 -35 -135 -43 -8 -3 -19 -7 -25
-8 -10 -3 -135 -43 -375 -122 -74 -24 -143 -45 -152 -46 -10 -1 -18 -5 -18 -9
0 -4 -7 -8 -15 -8 -7 0 -82 -22 -166 -50 -84 -27 -155 -50 -160 -50 -4 0 -20
-5 -36 -11 -15 -6 -30 -11 -33 -11 -3 -1 -19 -7 -36 -14 -17 -7 -34 -10 -38
-7 -3 4 -6 1 -6 -5 0 -7 -3 -11 -7 -10 -14 3 -78 -14 -92 -26 -8 -6 -17 -10
-20 -10 -3 1 -10 0 -16 -1 -35 -11 -433 -137 -445 -142 -8 -3 -19 -7 -25 -8
-24 -6 -274 -88 -310 -102 -22 -8 -49 -17 -60 -20 -34 -7 -39 -9 -80 -22 -22
-7 -49 -16 -60 -21 -20 -9 -95 -34 -105 -35 -6 -1 -166 -52 -360 -115 -80 -26
-246 -80 -370 -120 -228 -73 -333 -107 -360 -117 -8 -3 -19 -7 -25 -8 -5 -2
-62 -20 -125 -40 -63 -21 -121 -38 -127 -38 -7 0 -13 -3 -13 -7 0 -4 -6 -7
-12 -7 -10 0 -454 -141 -628 -199 -8 -3 -16 -5 -18 -4 -1 0 -15 -6 -31 -14
-16 -9 -31 -13 -34 -10 -3 3 -13 1 -24 -5 -10 -5 -56 -22 -103 -36 -47 -15
-92 -29 -100 -32 -8 -4 -21 -5 -27 -4 -7 1 -13 -3 -13 -8 0 -5 -8 -10 -17 -10
-10 0 -52 -11 -93 -26 -41 -15 -79 -28 -85 -29 -5 -2 -17 -5 -25 -9 -8 -3 -51
-16 -95 -30 -258 -81 -653 -210 -670 -218 -11 -5 -30 -11 -43 -12 -12 0 -22
-5 -22 -10 0 -4 -5 -5 -10 -2 -6 4 -16 3 -23 -3 -7 -5 -34 -15 -62 -22 -27 -7
-54 -16 -60 -19 -5 -3 -14 -6 -20 -8 -5 -1 -50 -15 -100 -32 -49 -16 -93 -27
-97 -25 -4 3 -8 0 -8 -5 0 -6 -11 -11 -23 -11 -13 0 -27 -3 -31 -7 -4 -5 -11
-8 -14 -8 -4 -1 -74 -23 -157 -50 -82 -27 -152 -50 -155 -50 -7 -1 -111 -35
-130 -42 -8 -3 -19 -7 -25 -8 -16 -4 -178 -56 -195 -62 -8 -4 -17 -7 -20 -7
-3 -1 -9 -4 -15 -7 -13 -8 -78 -23 -87 -21 -5 1 -8 -3 -8 -10 0 -6 -3 -9 -6
-6 -3 4 -21 0 -40 -8 -19 -8 -37 -14 -41 -14 -5 0 -71 -21 -147 -46 -77 -26
-145 -47 -150 -49 -6 -1 -18 -5 -26 -8 -8 -3 -82 -27 -165 -54 -82 -26 -152
-50 -155 -54 -3 -3 -13 -5 -22 -3 -10 1 -18 -1 -18 -5 0 -4 -6 -8 -12 -8 -7 0
-98 -28 -203 -62 -104 -34 -193 -61 -197 -62 -4 0 -23 -6 -43 -15 -19 -8 -35
-11 -35 -8 0 4 -6 2 -12 -3 -11 -8 -98 -39 -133 -48 -5 -1 -17 -5 -25 -8 -23
-8 -119 -39 -133 -41 -7 -2 -30 -8 -52 -14 -22 -6 -51 -13 -65 -16 -14 -2 -36
-7 -50 -10 -31 -7 -70 -14 -140 -23 -76 -10 -402 -9 -475 1 -33 5 -67 10 -75
11 -56 7 -275 61 -292 71 -5 3 -16 7 -25 9 -10 2 -37 10 -61 19 -23 8 -44 16
-47 16 -3 0 -10 2 -17 5 -7 2 -65 20 -128 40 -63 20 -124 40 -135 45 -11 4
-54 18 -95 30 -41 13 -149 47 -240 77 -91 30 -169 56 -175 57 -5 1 -55 17
-110 35 -55 18 -104 34 -110 36 -5 1 -17 5 -25 8 -8 3 -46 16 -85 27 -38 12
-78 26 -88 31 -10 5 -22 7 -27 4 -6 -4 -10 -1 -10 4 0 6 -3 10 -7 10 -5 -1
-10 -1 -13 1 -3 1 -15 3 -26 5 -12 3 -34 10 -50 16 -16 7 -33 13 -39 14 -5 0
-17 4 -25 7 -15 7 -121 41 -130 43 -12 2 -157 48 -175 56 -25 9 -126 42 -140
45 -5 1 -46 14 -90 29 -44 15 -84 28 -90 29 -15 3 -147 46 -170 56 -11 4 -40
14 -65 21 -25 7 -49 15 -55 18 -5 3 -19 7 -30 8 -11 2 -29 7 -40 12 -20 10
-205 71 -228 75 -7 2 -21 6 -32 10 -11 5 -27 10 -35 13 -8 4 -24 8 -35 10 -11
1 -29 7 -40 12 -20 10 -145 51 -168 55 -7 2 -20 6 -29 10 -9 4 -22 8 -30 10
-7 1 -17 4 -23 7 -9 6 -49 17 -67 19 -4 0 -24 8 -44 16 -19 8 -95 33 -167 55
-73 22 -141 44 -152 49 -11 5 -38 14 -60 20 -22 6 -44 13 -50 14 -5 2 -14 4
-20 6 -5 1 -18 7 -29 12 -10 6 -33 12 -50 15 -17 3 -34 9 -37 15 -3 5 -10 9
-15 8 -5 0 -46 11 -91 26 -46 14 -89 27 -95 28 -7 2 -20 6 -28 9 -8 4 -80 27
-160 52 -80 26 -152 49 -160 52 -8 4 -17 7 -20 8 -29 7 -294 94 -360 116 -47
17 -92 32 -100 34 -60 14 -76 18 -85 24 -5 3 -12 6 -15 7 -3 0 -39 11 -80 24
-41 13 -78 25 -82 26 -5 1 -10 3 -13 4 -3 1 -8 3 -12 4 -5 1 -21 6 -38 13 -29
11 -443 146 -457 149 -5 1 -10 3 -13 4 -3 1 -8 3 -12 4 -5 1 -39 12 -78 25
-38 12 -78 24 -89 26 -10 3 -24 9 -32 16 -8 6 -14 9 -14 6 0 -3 -33 6 -72 20
-40 14 -80 26 -88 28 -15 2 -21 4 -95 32 -22 8 -40 14 -40 13 0 -1 -8 1 -17 4
-10 3 -25 8 -34 11 -9 3 -15 7 -12 10 4 5 76 16 118 18 14 1 27 5 30 8 3 3 52
14 110 23 58 10 149 27 202 37 53 11 109 21 125 23 15 3 39 7 53 10 14 4 39 8
55 11 17 3 44 8 60 12 17 3 37 7 45 9 20 3 88 15 114 20 11 2 37 7 56 10 19 3
38 8 41 9 3 2 28 7 55 10 27 4 65 10 84 15 19 5 55 12 80 15 24 4 47 8 50 10
3 2 23 6 45 10 22 3 54 9 70 12 17 3 40 5 53 5 12 0 22 3 22 7 0 4 16 8 37 9
20 2 41 6 46 9 6 4 29 8 51 9 23 1 42 3 44 4 4 4 56 15 112 24 14 3 25 5 25 6
0 1 12 3 28 5 15 2 51 9 80 15 28 5 66 12 82 15 17 2 77 14 135 25 58 12 114
23 125 24 11 2 34 6 50 9 17 4 44 9 60 12 17 3 41 7 55 10 14 3 41 8 60 11 31
5 190 36 245 47 11 3 43 8 70 12 28 5 52 9 55 10 23 6 72 15 105 20 22 3 47 7
55 10 8 2 26 6 40 9 33 5 137 25 175 32 17 3 39 7 50 9 11 2 30 6 41 8 12 3
37 8 55 11 19 3 59 10 89 16 64 13 105 20 140 25 14 2 25 4 25 5 0 2 25 7 72
13 21 3 45 8 53 11 8 3 31 8 50 10 19 3 51 9 70 14 20 5 43 8 53 6 9 -1 17 1
17 4 0 4 13 8 28 9 15 1 41 5 57 8 45 10 87 17 120 18 17 1 32 5 35 9 3 3 23
9 45 12 23 4 52 9 65 12 14 2 36 7 50 9 14 2 39 7 55 10 17 3 64 12 105 20 41
8 84 16 95 19 18 3 86 15 125 22 8 1 29 5 45 8 86 18 112 23 156 30 19 3 45 8
59 11 14 3 40 8 59 11 34 6 51 9 106 20 17 4 42 7 58 8 15 0 27 3 27 6 0 3 16
7 36 8 20 2 46 7 56 13 11 6 22 9 24 6 3 -3 24 0 47 5 23 6 53 11 67 13 32 4
91 14 110 20 8 2 29 7 45 9 17 3 54 10 84 16 29 5 57 7 62 4 5 -3 9 -1 9 4 0
5 6 9 13 9 12 1 70 11 111 19 11 2 35 7 51 10 17 4 39 7 50 9 11 1 31 5 45 8
14 3 77 16 140 27 63 12 149 27 190 35 147 29 286 55 320 60 19 3 54 10 78 16
23 5 59 12 80 14 20 3 48 9 62 12 14 4 32 8 40 9 56 8 145 37 167 55 7 6 13 8
13 3 0 -5 4 -4 8 2 4 6 28 25 54 42 63 43 129 121 168 198 17 35 33 69 34 76
1 7 5 22 9 33 18 56 30 198 18 220 -3 6 -6 17 -6 25 -4 83 -70 212 -148 292
-73 75 -88 86 -147 115 -128 64 -254 82 -385 56 -33 -7 -78 -15 -100 -19 -22
-3 -42 -7 -45 -9 -3 -1 -27 -6 -54 -9 -27 -4 -52 -9 -55 -11 -3 -1 -24 -6 -46
-9 -22 -4 -87 -16 -145 -27 -58 -11 -120 -22 -138 -24 -18 -2 -42 -7 -53 -10
-10 -4 -31 -8 -46 -11 -16 -2 -48 -9 -73 -14 -25 -5 -58 -11 -75 -14 -31 -4
-194 -34 -230 -43 -11 -2 -29 -6 -40 -7 -46 -8 -92 -17 -120 -23 -42 -10 -45
-10 -47 -13 -2 -1 -19 -3 -38 -4 -19 -2 -60 -8 -90 -14 -30 -6 -68 -14 -85
-17 -16 -2 -41 -7 -55 -10 -88 -17 -124 -24 -152 -29 -13 -1 -36 -6 -53 -9
-16 -4 -43 -9 -60 -12 -16 -3 -46 -8 -65 -12 -19 -3 -42 -7 -50 -8 -8 -1 -26
-5 -40 -8 -14 -4 -37 -9 -52 -12 -16 -3 -38 -7 -50 -9 -13 -3 -39 -7 -58 -10
-19 -3 -46 -8 -60 -11 -75 -15 -128 -25 -150 -29 -23 -4 -489 -91 -536 -100
-12 -2 -39 -7 -60 -11 -22 -4 -43 -8 -49 -9 -5 -2 -32 -7 -60 -11 -57 -10 -51
-9 -90 -18 -16 -4 -48 -9 -70 -13 -56 -8 -80 -12 -82 -14 -2 -2 -11 -3 -20 -4
-10 -1 -43 -8 -73 -14 -49 -10 -84 -17 -145 -27 -11 -2 -31 -6 -45 -9 -13 -3
-42 -8 -65 -12 -46 -7 -70 -12 -70 -14 0 -1 -13 -3 -29 -5 -16 -2 -51 -9 -78
-14 -26 -6 -52 -10 -56 -9 -4 0 -14 -1 -22 -5 -8 -3 -46 -11 -85 -18 -80 -13
-81 -14 -195 -35 -47 -9 -94 -18 -105 -20 -11 -2 -69 -13 -130 -24 -60 -12
-121 -23 -135 -26 -14 -2 -47 -9 -75 -14 -27 -5 -66 -12 -85 -15 -19 -3 -42
-8 -50 -10 -20 -6 -67 -14 -110 -21 -19 -2 -45 -7 -57 -9 -13 -3 -35 -7 -50
-10 -16 -3 -50 -10 -78 -15 -81 -16 -97 -19 -139 -26 -22 -3 -44 -7 -47 -10
-4 -2 -24 -6 -44 -9 -21 -2 -45 -7 -54 -9 -9 -3 -32 -7 -51 -10 -19 -3 -44 -7
-55 -10 -11 -2 -40 -7 -65 -12 -25 -4 -47 -8 -50 -9 -3 -1 -25 -5 -50 -9 -25
-5 -54 -10 -65 -12 -41 -8 -81 -15 -105 -19 -14 -2 -36 -7 -50 -10 -39 -8 -72
-15 -109 -21 -18 -3 -43 -8 -55 -10 -11 -2 -70 -13 -131 -24 -60 -11 -131 -25
-157 -31 -25 -6 -57 -12 -70 -14 -42 -6 -102 -16 -146 -26 -23 -5 -59 -12 -78
-15 -20 -3 -46 -8 -58 -10 -11 -3 -59 -12 -106 -20 -109 -19 -111 -20 -200
-38 -41 -9 -88 -18 -105 -20 -16 -1 -46 -7 -65 -11 -19 -5 -42 -9 -50 -10 -8
-1 -28 -4 -45 -8 -16 -4 -43 -9 -60 -12 -37 -5 -58 -10 -115 -25 -25 -7 -55
-14 -67 -16 -12 -2 -34 -9 -48 -14 -14 -5 -25 -7 -25 -4 0 4 -6 2 -12 -3 -13
-10 -72 -27 -74 -21 0 2 -7 -2 -15 -8 -8 -6 -32 -17 -54 -24 -95 -30 -412
-179 -455 -215 -8 -6 -22 -14 -30 -17 -8 -3 -71 -44 -141 -90 l-125 -85 -55
19 c-29 10 -56 19 -59 20 -3 0 -9 2 -15 4 -104 35 -273 87 -282 87 -7 0 -13 4
-13 9 0 4 -11 8 -23 8 -13 0 -27 3 -31 7 -3 4 -12 8 -19 9 -12 2 -141 43 -357
114 -69 23 -132 43 -140 45 -8 2 -49 15 -90 30 -41 14 -86 28 -100 31 -13 3
-30 10 -37 16 -7 6 -13 8 -13 5 0 -4 -19 1 -42 9 -24 9 -50 17 -58 19 -8 2
-15 4 -15 5 0 1 -11 3 -24 6 -14 2 -30 9 -37 15 -7 6 -18 8 -24 4 -5 -3 -10
-1 -10 6 0 7 -2 10 -6 7 -7 -8 -102 29 -138 55 -17 11 -39 30 -48 42 -10 11
-22 26 -28 33 -21 24 -42 98 -42 147 1 92 46 177 120 228 31 21 204 88 263
102 9 2 39 11 65 20 27 9 56 18 64 20 8 2 15 4 15 5 0 1 7 3 15 5 8 2 48 15
87 29 40 13 73 22 73 19 0 -3 6 0 13 6 8 6 22 12 33 14 10 1 24 5 29 9 13 7
78 22 87 20 5 -1 8 3 8 10 0 6 3 8 7 5 3 -4 12 -2 20 4 7 6 13 8 13 4 0 -4 7
-2 15 5 8 7 15 9 15 5 0 -4 7 -2 15 5 8 7 15 10 15 7 0 -3 29 5 65 18 36 13
69 25 73 26 8 2 12 3 82 24 30 9 62 19 70 22 8 4 17 7 20 8 3 1 59 18 125 40
66 21 120 37 120 35 0 -2 10 2 23 9 13 7 31 14 40 16 9 2 55 17 102 33 47 16
89 29 93 29 4 1 20 6 35 11 15 6 65 22 112 37 47 14 92 29 100 32 8 4 20 8 25
8 6 1 17 5 25 8 8 3 67 22 130 42 63 20 122 39 130 42 8 3 20 7 25 8 6 2 62
20 125 41 63 21 117 38 120 39 4 1 49 15 100 31 8 3 17 5 20 6 3 0 21 6 40 14
19 8 36 14 38 13 2 0 15 4 30 9 44 17 376 122 385 122 4 0 21 7 37 15 17 9 30
13 30 11 0 -3 30 6 68 20 37 13 67 24 67 23 0 0 7 2 15 5 8 2 123 39 255 81
132 42 259 83 283 92 23 8 48 16 55 17 6 2 19 6 27 9 8 3 67 22 130 42 63 20
122 39 130 42 8 3 20 7 25 9 6 1 45 14 87 28 42 14 87 27 100 30 13 2 39 11
58 20 29 12 188 64 225 72 6 1 49 16 97 32 47 17 89 28 92 24 3 -3 6 -1 6 4 0
5 10 10 22 11 11 1 24 6 27 10 3 4 13 9 21 10 26 3 60 12 70 18 5 3 18 8 27
10 10 2 43 13 75 23 31 11 59 18 62 15 3 -4 6 -1 6 6 0 7 4 10 9 6 5 -3 12 -1
16 5 4 6 11 8 16 4 5 -3 15 -2 22 3 10 8 108 42 140 49 4 1 9 3 12 4 3 1 8 3
13 4 4 1 45 15 92 30 47 15 92 29 100 31 8 2 40 12 70 23 75 27 210 71 237 77
12 3 35 10 50 17 16 6 32 10 36 9 4 0 17 4 28 10 11 6 28 12 37 14 9 2 67 20
127 40 61 20 115 38 120 39 12 3 145 45 165 53 8 4 18 7 23 8 4 2 10 4 15 5 4
1 11 2 16 1 4 -1 13 2 20 7 10 8 101 40 136 47 8 2 116 37 240 77 124 41 275
89 335 108 61 19 112 37 115 40 3 3 14 7 25 8 11 2 57 17 102 32 45 16 84 26
87 23 3 -3 11 -1 18 4 7 5 42 19 78 31 36 12 94 31 130 43 36 11 70 22 75 24
6 1 23 7 38 13 16 7 31 12 35 12 7 0 434 137 477 153 17 6 35 12 40 13 6 1 39
12 75 24 36 12 70 23 75 25 6 1 17 5 25 8 22 8 212 68 230 73 18 4 124 39 200
66 30 11 62 21 70 23 17 4 238 74 260 82 8 4 18 7 22 7 3 1 10 4 14 9 4 4 15
7 24 7 10 0 46 9 81 21 35 12 75 22 89 24 14 2 25 4 25 5 0 1 11 3 25 4 14 2
34 6 45 9 22 7 74 14 149 22 27 2 51 7 55 10 3 4 7 1 9 -4 2 -6 9 -8 15 -4z
m-5032 -6438 c19 -6 41 -13 49 -16 16 -7 31 -11 58 -17 9 -3 17 -5 17 -6 0 -1
7 -3 15 -6 24 -6 203 -65 225 -74 17 -6 99 -32 115 -36 54 -12 70 -18 70 -23
0 -4 12 -8 26 -9 15 -1 33 -7 40 -13 7 -6 18 -8 24 -4 5 3 10 1 10 -4 0 -6 3
-10 8 -9 7 2 285 -84 327 -101 23 -10 185 -63 200 -65 5 -1 111 -36 235 -76
124 -41 233 -75 243 -77 10 -2 31 -10 48 -18 16 -9 29 -13 29 -10 0 2 32 -7
71 -21 39 -14 78 -27 87 -29 15 -3 148 -46 451 -146 51 -17 99 -32 105 -34 6
-1 18 -5 26 -8 14 -5 90 -30 100 -32 37 -9 67 -19 75 -24 6 -3 12 -6 15 -7 27
-4 98 -28 108 -36 6 -6 12 -8 12 -4 0 3 21 -3 48 -13 26 -10 52 -19 57 -20 6
-1 33 -8 60 -17 28 -8 56 -17 63 -20 7 -2 16 -4 20 -5 4 -1 36 -11 72 -24 36
-12 97 -32 135 -45 39 -12 77 -24 85 -27 8 -4 20 -7 25 -8 24 -6 241 -78 250
-83 5 -3 18 -7 30 -8 11 -1 34 -8 50 -15 17 -7 32 -13 35 -14 27 -7 203 -64
315 -101 77 -25 147 -48 155 -49 8 -2 15 -4 15 -5 0 -1 7 -3 15 -5 8 -2 52
-15 98 -29 83 -25 246 -62 319 -72 21 -3 49 -7 63 -10 25 -4 48 -6 175 -20 86
-10 466 -9 555 0 36 4 83 9 105 11 22 2 51 6 65 9 14 3 45 8 70 11 59 7 246
49 335 76 39 11 81 22 94 25 13 3 37 12 52 20 16 8 29 12 29 8 0 -4 6 -1 14 5
8 6 18 11 22 9 8 -1 518 161 569 181 30 12 122 42 137 45 7 1 65 20 128 41 63
22 118 40 123 41 4 1 8 2 10 4 1 1 10 3 19 5 32 6 123 38 134 46 6 5 13 6 16
3 4 -3 20 2 37 11 17 8 31 13 31 9 0 -4 7 -1 15 6 8 7 15 9 15 6 0 -4 6 -4 13
1 6 4 17 8 22 9 6 2 53 17 105 34 52 17 102 33 110 35 8 2 83 26 165 53 141
46 384 125 395 128 3 0 12 3 20 7 42 16 405 130 417 130 7 0 13 4 13 9 0 4 3
7 8 6 12 -2 66 14 80 25 6 5 12 7 12 4 0 -3 29 5 65 18 36 13 68 24 70 24 20
2 62 16 74 25 8 6 15 9 15 7 1 -4 84 20 126 36 8 3 20 7 25 8 6 2 69 22 140
46 72 23 136 44 143 45 8 1 21 6 30 10 9 4 22 8 27 9 6 2 68 22 139 45 71 23
134 43 140 44 6 1 16 4 21 7 12 7 176 58 204 64 10 2 33 11 50 19 17 9 32 16
33 15 2 0 30 7 63 17 33 10 65 19 70 20 6 2 30 10 54 19 24 9 46 13 49 10 7
-7 11 -26 17 -80 2 -22 6 -58 9 -80 10 -79 21 -166 31 -245 3 -22 8 -59 11
-82 3 -24 7 -63 10 -88 10 -89 12 -105 18 -140 3 -19 8 -55 10 -80 3 -25 8
-67 11 -94 4 -26 8 -62 10 -80 2 -17 6 -51 10 -76 6 -51 13 -104 21 -169 3
-24 7 -60 10 -80 2 -20 6 -54 9 -76 2 -22 6 -56 9 -75 9 -60 21 -158 31 -245
2 -22 7 -58 10 -80 3 -22 7 -56 10 -75 8 -60 16 -124 20 -160 2 -19 6 -55 9
-80 10 -77 17 -134 22 -167 2 -18 6 -48 8 -65 3 -18 7 -55 11 -83 3 -27 8 -66
11 -85 3 -19 7 -55 9 -80 3 -25 6 -61 9 -80 3 -19 7 -53 10 -75 3 -22 8 -56
11 -75 2 -19 7 -55 10 -80 11 -110 16 -156 20 -170 2 -8 7 -46 11 -85 3 -38 8
-79 11 -90 2 -11 6 -38 8 -60 4 -49 14 -131 20 -165 2 -14 7 -47 10 -75 3 -27
8 -70 11 -95 12 -93 12 -93 -30 -133 -45 -42 -162 -122 -271 -184 -65 -38
-194 -106 -205 -108 -3 -1 -40 -18 -84 -38 -43 -20 -80 -37 -81 -37 -1 0 -20
-8 -41 -17 -22 -9 -42 -16 -46 -15 -5 1 -8 -2 -8 -8 0 -6 -3 -9 -7 -8 -5 1
-24 -4 -43 -11 -19 -8 -37 -15 -40 -15 -3 -1 -16 -8 -30 -16 -14 -7 -25 -12
-25 -11 0 1 -7 0 -15 -3 -35 -11 -256 -88 -270 -94 -8 -3 -17 -6 -20 -6 -12
-2 -97 -29 -115 -36 -11 -5 -63 -21 -115 -35 -52 -15 -106 -31 -120 -36 -36
-12 -193 -51 -207 -52 -7 0 -13 -3 -13 -7 0 -3 -8 -6 -18 -7 -10 -1 -47 -9
-83 -18 -65 -17 -81 -21 -121 -30 -19 -4 -39 -8 -88 -20 -13 -3 -117 -26 -135
-29 -11 -3 -42 -9 -69 -16 -27 -6 -51 -8 -54 -5 -3 2 -11 0 -17 -5 -7 -6 -30
-12 -51 -14 -22 -3 -39 -5 -39 -6 0 -3 -26 -8 -90 -19 -33 -6 -71 -13 -85 -16
-14 -3 -43 -7 -65 -10 -22 -3 -47 -7 -55 -10 -8 -2 -33 -6 -55 -9 -22 -4 -51
-8 -65 -11 -44 -8 -84 -15 -115 -20 -54 -8 -179 -25 -210 -29 -16 -2 -48 -7
-70 -10 -22 -3 -60 -8 -85 -11 -25 -3 -61 -8 -80 -11 -36 -5 -96 -12 -160 -19
-19 -2 -60 -6 -90 -9 -53 -6 -120 -13 -205 -21 -22 -2 -67 -6 -100 -9 -116
-11 -251 -22 -415 -32 -188 -12 -242 -14 -336 -18 -56 -2 -106 -5 -110 -7 -5
-2 -66 -4 -136 -4 -71 0 -128 -2 -128 -5 0 -3 -242 -4 -537 -2 -635 3 -803 5
-803 12 0 3 -44 6 -98 7 -141 3 -227 9 -240 17 -7 4 -12 2 -12 -4 0 -6 -4 -9
-9 -5 -6 3 -54 8 -108 11 -125 8 -188 12 -188 14 0 0 -31 3 -70 5 -38 3 -95 7
-125 10 -30 3 -80 7 -110 10 -30 2 -55 4 -55 5 0 1 -16 3 -35 5 -79 6 -176 15
-195 19 -11 2 -45 7 -75 10 -30 4 -71 9 -90 11 -68 9 -135 17 -160 19 -14 2
-41 5 -60 9 -19 4 -57 9 -85 12 -27 3 -59 8 -70 10 -23 5 -83 14 -135 21 -19
2 -62 9 -95 15 -33 6 -71 12 -85 14 -14 2 -25 4 -25 5 0 2 -35 9 -75 14 -31 4
-225 41 -275 52 -11 3 -29 7 -40 9 -11 2 -31 6 -45 10 -14 3 -37 8 -52 10 -16
2 -44 8 -63 14 -19 5 -35 7 -35 4 0 -3 -7 0 -15 7 -8 7 -15 10 -15 7 0 -3 -17
-1 -37 4 -76 19 -121 29 -143 33 -8 2 -22 6 -30 9 -8 4 -28 8 -45 11 -16 2
-30 5 -30 6 0 1 -7 3 -15 5 -8 2 -51 13 -95 25 -44 12 -105 28 -135 36 -30 8
-76 21 -101 30 -25 8 -54 16 -65 19 -10 2 -32 9 -49 14 -45 16 -329 111 -340
114 -21 6 -183 67 -225 85 -14 6 -52 22 -85 36 -99 41 -114 48 -280 131 -167
84 -330 187 -402 253 -33 30 -41 45 -38 63 5 24 15 109 20 164 2 17 4 30 5 30
1 0 3 14 4 30 2 17 7 57 11 90 4 33 8 74 10 90 3 32 13 114 20 155 2 14 6 45
9 70 3 25 8 65 11 90 7 52 13 96 19 161 3 26 8 60 11 75 3 16 8 54 11 84 3 30
8 66 10 80 8 61 13 99 18 160 4 36 9 72 11 80 2 8 7 43 10 78 4 35 8 72 10 82
2 10 7 45 10 77 4 32 9 69 10 83 2 14 6 48 9 75 4 28 9 66 12 85 3 19 8 53 10
75 2 22 5 55 8 74 3 18 6 51 8 72 1 21 4 39 7 39 4 0 6 17 7 38 1 20 4 57 7
82 4 25 9 72 12 105 4 33 8 71 11 85 3 14 7 45 10 70 9 92 13 125 15 125 1 0
6 38 13 110 3 28 5 50 6 50 3 0 10 62 12 107 2 27 5 48 8 48 3 0 5 10 6 23 1
21 9 91 18 167 3 19 7 55 10 80 3 25 8 65 11 90 4 25 8 61 10 80 4 34 12 95
20 155 3 17 7 57 10 90 6 61 11 85 18 85 2 0 19 -5 38 -11z"/>
</g>
</svg>
